<?xml version="1.0" encoding="UTF-8" standalone="no"?>
<svg
   version="1.0"
   width="2560.000000pt"
   height="495.000000pt"
   viewBox="0 0 2560.000000 495.000000"
   preserveAspectRatio="xMidYMid meet"
   id="svg55"
   sodipodi:docname="Facebook_Logo.svg"
   inkscape:version="1.1.2 (b8e25be833, 2022-02-05)"
   xmlns:inkscape="http://www.inkscape.org/namespaces/inkscape"
   xmlns:sodipodi="http://sodipodi.sourceforge.net/DTD/sodipodi-0.dtd"
   xmlns="http://www.w3.org/2000/svg"
   xmlns:svg="http://www.w3.org/2000/svg">
  <defs
     id="defs59" />
  <sodipodi:namedview
     id="namedview57"
     pagecolor="#505050"
     bordercolor="#eeeeee"
     borderopacity="1"
     inkscape:pageshadow="0"
     inkscape:pageopacity="0"
     inkscape:pagecheckerboard="0"
     inkscape:document-units="pt"
     showgrid="false"
     inkscape:zoom="0.20317383"
     inkscape:cx="2261.6102"
     inkscape:cy="44.297044"
     inkscape:window-width="1600"
     inkscape:window-height="837"
     inkscape:window-x="-8"
     inkscape:window-y="-8"
     inkscape:window-maximized="1"
     inkscape:current-layer="svg55" />
  <metadata
     id="metadata35">
Created by potrace 1.16, written by Peter Selinger 2001-2019
</metadata>
  <g
     transform="translate(0.000000,495.000000) scale(0.100000,-0.100000)"
     fill="#000000"
     stroke="none"
     id="g53">
    <path
       d="M1570 4935 c-500 -69 -783 -320 -879 -781 -32 -154 -41 -282 -41 -605 l0 -299 -325 0 -325 0 0 -405 0 -405 325 0 325 0 0 -1205 0 -1205 490 0 490 0 0 1205 0 1205 364 0 365 0 5 43 c9 61 76 729 76 750 0 16 -28 17 -406 17 l-406 0 4 318 c4 295 6 322 27 386 17 52 34 80 70 116 79 79 101 83 434 88 l287 3 0 379 0 379 -32 6 c-160 26 -682 33 -848 10z"
       id="path37" />
    <path
       d="M12655 4904 c-247 -23 -456 -43 -462 -43 -10 -1 -13 -491 -13 -2416 l0 -2415 465 0 465 0 0 227 0 228 38 -64 c99 -170 293 -322 497 -392 l87 -29 346 0 347 0 111 38 c409 140 687 483 797 983 45 202 52 285 52 619 0 334 -7 417 -52 619 -58 266 -161 481 -318 664 -162 189 -423 330 -688 372 -498 78 -895 -65 -1123 -404 l-44 -66 0 1063 0 1062 -27 -1 c-16 -1 -230 -21 -478 -45z m1270 -2375 c142 -24 287 -125 363 -252 80 -132 110 -275 118 -552 15 -492 -64 -749 -274 -889 -120 -79 -287 -116 -441 -97 -293 37 -466 224 -516 559 -20 133 -20 552 0 685 63 418 336 617 750 546z"
       id="path39" />
    <path
       d="M23270 4905 c-250 -24 -461 -44 -467 -44 -10 -1 -13 -491 -13 -2416 l0 -2415 490 0 490 0 0 782 0 782 497 -782 497 -782 418 0 418 0 0 165 0 164 -415 645 c-228 354 -415 650 -415 656 0 6 187 305 415 665 l415 654 0 136 0 135 -438 0 -438 0 -477 -762 -477 -761 0 1611 0 1612 -22 -1 c-13 -1 -228 -21 -478 -44z"
       id="path41" />
    <path
       d="M3685 3313 c-22 -2 -83 -10 -135 -19 -596 -102 -972 -579 -1040 -1319 -13 -143 -13 -529 1 -675 59 -655 367 -1109 859 -1270 l92 -30 346 0 347 1 86 32 c199 76 351 204 463 391 l36 60 0 -227 0 -227 470 0 470 0 0 1610 0 1610 -470 0 -470 0 0 -232 0 -232 -35 58 c-80 132 -174 233 -288 309 -189 126 -453 184 -732 160z m574 -788 c237 -56 386 -250 431 -560 15 -110 12 -563 -5 -675 -27 -179 -78 -292 -177 -396 -105 -110 -227 -157 -408 -157 -363 0 -566 211 -610 634 -23 226 -9 561 30 716 62 244 229 409 450 446 62 10 230 6 289 -8z"
       id="path43" />
    <path
       d="M7540 3314 c-123 -9 -315 -36 -407 -59 -642 -156 -1007 -586 -1082 -1277 -14 -125 -14 -551 0 -676 42 -392 170 -685 398 -913 183 -183 418 -307 698 -369 80 -18 130 -20 548 -20 453 0 461 0 560 24 160 39 308 97 363 142 l22 19 -109 345 c-59 190 -112 344 -117 343 -5 -1 -43 -16 -84 -33 -350 -145 -766 -147 -998 -6 -150 92 -244 242 -294 471 -21 94 -18 587 4 685 39 178 97 289 200 384 122 114 262 164 478 173 210 8 431 -32 628 -115 50 -21 75 -27 78 -19 30 81 212 682 209 688 -9 14 -108 66 -180 94 -101 40 -271 81 -411 99 -124 16 -404 27 -504 20z"
       id="path45" />
    <path
       d="M17118 3310 c-354 -32 -629 -129 -863 -306 -234 -177 -410 -453 -489 -769 -49 -196 -59 -299 -59 -595 0 -296 10 -400 59 -594 131 -526 492 -888 1018 -1021 98 -25 103 -25 528 -25 475 0 472 0 675 71 475 168 790 557 895 1104 21 111 23 147 23 465 0 318 -2 354 -23 465 -62 322 -193 586 -392 785 -178 179 -387 295 -653 364 -194 51 -508 75 -719 56z m382 -790 c75 -20 176 -79 229 -133 92 -94 132 -169 172 -322 23 -86 24 -104 24 -425 0 -320 -1 -339 -24 -425 -84 -320 -278 -477 -591 -478 -186 0 -320 51 -430 162 -116 119 -172 269 -192 516 -12 164 -4 485 16 595 58 318 242 504 521 528 90 8 208 0 275 -18z"
       id="path47" />
    <path
       d="M20690 3313 c-678 -47 -1134 -353 -1345 -902 -83 -217 -115 -430 -115 -771 0 -260 14 -405 55 -577 113 -473 418 -824 857 -987 201 -75 213 -76 691 -76 425 0 429 0 528 25 251 64 460 178 635 347 229 221 362 499 421 878 25 164 25 616 0 780 -81 521 -324 887 -728 1099 -263 138 -648 209 -999 184z m363 -802 c184 -62 310 -208 367 -427 53 -206 53 -685 0 -889 -78 -300 -283 -458 -590 -458 -173 0 -296 44 -404 143 -69 64 -112 128 -149 222 -50 125 -58 184 -64 471 -6 285 3 401 38 528 58 210 206 370 389 419 116 32 303 27 413 -9z"
       id="path49" />
    <path
       d="M10025 3295 c-616 -86 -1018 -397 -1183 -916 -67 -209 -82 -345 -82 -720 0 -405 20 -577 91 -791 67 -202 155 -345 298 -489 177 -178 388 -289 681 -359 80 -19 118 -20 650 -20 l565 0 146 30 c175 35 358 90 450 133 l67 32 -91 336 -90 337 -81 -30 c-185 -69 -412 -122 -636 -150 -141 -17 -474 -17 -570 1 -311 56 -460 218 -496 539 l-7 62 1028 0 1028 0 -6 363 c-4 226 -12 402 -21 468 -90 653 -435 1037 -1043 1160 -139 28 -539 36 -698 14z m526 -684 c225 -71 348 -272 349 -568 l0 -103 -581 0 -582 0 7 93 c25 351 188 555 481 601 71 11 261 -3 326 -23z"
       id="path51" />
  </g>
  <path
     style="fill:#ffffff;stroke-width:4.92189"
     d="M 91.055035,492.18938 V 332.22783 H 46.757991 2.4609469 V 280.54795 228.86806 H 46.757991 91.055035 v -55.70845 c 0,-73.368273 7.968472,-100.429494 38.514905,-130.797992 12.65482,-12.581112 31.86818,-25.794826 42.69634,-29.363809 22.40101,-7.3834117 118.39672,-13.38889943 137.4754,-8.6004547 12.45079,3.1249497 12.64236,3.8723663 12.64236,49.3249737 v 46.151943 l -40.60562,3.534749 c -22.33309,1.94411 -44.3847,5.52297 -49.00358,7.95303 -11.8654,6.24255 -18.61306,34.96358 -18.64501,79.36133 l -0.0274,38.14468 h 54.70795 54.70795 l -3.13636,28.30089 c -1.72499,15.56549 -4.40288,38.82144 -5.95087,51.67988 l -2.81452,23.379 H 262.85946 214.10238 V 492.18938 652.15092 H 152.57871 91.055035 Z"
     id="path215"
     transform="scale(0.75)" />
  <path
     style="fill:#ffffff;stroke-width:4.92189"
     d="m 433.12665,645.30833 c -46.01093,-21.81561 -79.50243,-69.35855 -91.21451,-129.48377 -9.34336,-47.96513 -4.03797,-149.62187 9.6543,-184.98624 22.04832,-56.94638 58.84535,-90.80231 114.06634,-104.94927 57.85678,-14.82222 109.00428,-1.21038 144.72012,38.51424 l 22.11045,24.59214 v -30.06369 -30.06368 h 61.52367 61.52367 v 211.64143 211.64143 h -61.52367 -61.52367 v -29.91398 -29.91399 l -15.99615,20.92576 c -26.1139,34.16155 -50.20762,43.83299 -109.0558,43.77603 -41.99976,-0.0406 -53.47778,-1.851 -74.28475,-11.71641 z m 155.54226,-92.86548 c 9.19822,-6.1127 21.70744,-20.97854 27.79829,-33.03521 9.60364,-19.01018 11.0599,-29.46258 10.96616,-78.71057 -0.12492,-65.62911 -7.81719,-89.57228 -35.0021,-108.94853 -23.29376,-16.6028 -68.68014,-16.76559 -91.74,-0.32905 -29.02021,20.68495 -37.26942,44.63743 -37.57045,109.09 -0.23173,49.61617 1.15288,59.50482 11.21908,80.12402 14.17102,29.02732 36.86632,42.39719 72.49293,42.7058 18.11448,0.15691 29.7723,-2.87944 41.83609,-10.89646 z"
     id="path254"
     transform="scale(0.75)" />
  <path
     style="fill:#ffffff;stroke-width:4.92189"
     d="M 928.47799,647.2318 C 882.0573,630.53284 850.66961,601.43895 827.58613,553.71305 812.2136,521.92982 812.11247,521.20608 812.11247,442.97044 c 0,-71.80835 1.04677,-81.35033 11.8747,-108.24538 16.23677,-40.32986 56.83918,-80.78629 95.65189,-95.30799 64.30084,-24.05803 154.58794,-24.60657 207.36704,-1.25987 l 21.7037,9.60058 -12.5381,41.00455 c -6.896,22.55251 -13.402,41.91313 -14.4578,43.02361 -1.0558,1.11048 -10.5116,-0.55518 -21.013,-3.70146 -55.8855,-16.74371 -106.37289,-11.3741 -135.77383,14.44027 -22.96027,20.15938 -29.54492,42.45486 -29.66518,100.44569 -0.0887,42.77839 1.50807,52.43921 12.20266,73.82841 16.44133,32.88265 42.8088,46.75799 88.85475,46.75799 17.9455,0 43.3251,-3.21931 56.3991,-7.15402 13.0741,-3.93471 25.3911,-6.15279 27.3711,-4.92905 1.98,1.22374 8.2884,17.66013 14.0185,36.52532 5.7301,18.86519 11.6378,37.47797 13.1281,41.36173 1.9263,5.01987 -5.2688,10.04652 -24.8871,17.38669 -38.7543,14.49982 -154.10885,14.78798 -193.87101,0.48427 z"
     id="path293"
     transform="scale(0.75)" />
  <path
     style="fill:#ffffff;stroke-width:4.92189"
     d="m 1291.3236,649.36063 c -50.8994,-15.67115 -94.7059,-60.21528 -110.0579,-111.91098 -10.7258,-36.11769 -14.5912,-112.40547 -7.8723,-155.36634 14.1263,-90.32303 69.8379,-144.93845 161.0423,-157.87357 77.1991,-10.9488 150.9336,9.46324 188.5486,52.1962 31.4357,35.71281 40.8973,66.83519 43.5302,143.1855 l 2.2489,65.2151 h -136.5703 -136.5702 l 2.7485,20.49193 c 3.2737,24.40691 15.6526,42.37683 38.4372,55.79742 13.967,8.22684 25.2011,9.79317 68.3921,9.53565 46.4597,-0.27701 63.881,-3.09213 120.5864,-19.48553 8.7478,-2.52899 11.0481,1.70214 20.6616,38.00528 6.0109,22.69874 8.9436,42.72995 6.6,45.07935 -2.3199,2.32554 -19.3217,8.41638 -37.7818,13.53521 -42.7925,11.86599 -187.2416,12.89467 -223.9433,1.59478 z m 163.096,-265.93955 c 0,-49.55318 -26.3938,-75.76592 -76.2893,-75.76592 -49.4882,0 -73.5795,22.38566 -79.6992,74.05623 l -2.8832,24.34485 h 79.4358 79.4359 z"
     id="path332"
     transform="scale(0.75)" />
  <path
     style="fill:#ffffff;stroke-width:4.92189"
     d="m 1805.0063,646.66218 c -11.559,-5.72156 -29.8172,-20.67009 -40.5739,-33.2189 l -19.5575,-22.81603 -0.032,30.76184 -0.032,30.76183 h -59.0627 -59.0627 V 332.86337 13.575818 l 40.6056,-3.317248 c 22.3331,-1.8244872 51.1262,-4.6106743 63.9846,-6.191527 l 23.379,-2.8742779 v 141.7939949 141.794 l 17.0125,-19.8753 c 25.0668,-29.28483 59.6374,-42.95029 108.4958,-42.88739 31.7367,0.0409 44.7092,2.49553 66.8712,12.65338 67.7826,31.06776 102.7632,101.13515 102.7632,205.83804 0,102.29881 -33.9955,174.80431 -95.6316,203.96284 -23.2182,10.98399 -33.1464,12.6 -77.3894,12.5966 -41.748,-0.003 -54.4835,-1.84984 -71.7705,-10.40675 z m 81.5931,-97.19682 c 25.6963,-18.29739 32.2476,-36.22239 34.4475,-94.25173 2.3041,-60.77657 -3.434,-86.89649 -24.3136,-110.67704 -26.5495,-30.23823 -77.8903,-34.73827 -110.712,-9.70394 -25.8504,19.71706 -32.6793,45.83335 -30.6527,117.22763 1.9359,68.20028 5.7151,77.94479 39.1142,100.85345 22.3471,15.32796 68.156,13.61313 92.1166,-3.44837 z"
     id="path371"
     transform="scale(0.75)" />
  <path
     style="fill:#ffffff;stroke-width:4.92189"
     d="m 2218.6315,647.67496 c -45.8179,-16.8921 -82.0753,-51.04434 -103.2172,-97.22434 -21.6684,-47.32995 -23.7665,-152.23861 -4.1675,-208.379 10.7135,-30.68851 40.2855,-68.32553 68.6766,-87.40649 34.4959,-23.18386 70.9452,-32.62195 125.9838,-32.62195 110.6401,0 179.8789,48.02808 204.9669,142.17696 10.6008,39.78192 8.6671,129.7479 -3.5694,166.07141 -17.2521,51.21204 -45.4749,85.03911 -90.6549,108.65639 -28.6191,14.96031 -31.7359,15.48017 -100.8988,16.82921 -60.6186,1.18238 -75.246,-0.0379 -97.1195,-8.10219 z m 135.0262,-97.04583 c 22.0815,-16.4862 30.9349,-32.5135 36.3911,-65.87895 5.8656,-35.86886 1.868,-97.74235 -7.8249,-121.1117 -20.5165,-49.4646 -98.3362,-60.54383 -134.6613,-19.17181 -19.3421,22.02941 -25.2727,44.56723 -25.2727,96.04282 0,65.92142 12.8549,98.58304 45.3161,115.13852 21.8262,11.13157 68.0293,8.43683 86.0517,-5.01888 z"
     id="path410"
     transform="scale(0.75)" />
  <path
     style="fill:#ffffff;stroke-width:4.92189"
     d="m 2684.0149,645.52449 c -75.8254,-31.67693 -111.7361,-89.04366 -116.0122,-185.32742 -3.7824,-85.16595 12.2007,-139.57842 53.4999,-182.13448 55.9183,-57.62 175.9783,-74.98451 258.197,-37.34354 76.6772,35.10398 116.3288,116.8633 108.6911,224.11492 -6.2115,87.22504 -40.3782,143.95114 -106.1618,176.2576 -25.6534,12.59845 -32.3966,13.60855 -98.898,14.81452 -65.6108,1.18982 -73.6218,0.35242 -99.316,-10.3816 z m 142.4487,-95.10572 c 28.1361,-20.97176 33.1567,-37.24156 33.1567,-107.44833 0,-55.43774 -1.379,-66.61443 -10.3239,-83.67219 -29.0407,-55.38077 -115.0996,-54.01726 -143.4853,2.27337 -9.6224,19.08188 -11.0743,29.59301 -11.0743,80.17685 0,47.4151 1.7292,61.60388 9.3201,76.47693 17.744,34.76627 38.3861,45.97139 80.5706,43.73599 19.0413,-1.00902 32.7951,-4.80369 41.8361,-11.54262 z"
     id="path449"
     transform="scale(0.75)" />
  <path
     style="fill:#ffffff;stroke-width:4.92189"
     d="m 3039.2694,355.06331 c 0,-163.3982 1.3725,-307.10071 3.0499,-319.33893 l 3.0499,-22.251309 40.0167,-3.211441 c 22.0091,-1.7662932 49.4298,-4.495504 60.9347,-6.0649128 l 20.918,-2.8534711 V 216.29495 c 0,118.22344 1.7646,213.86113 3.9214,212.52819 2.1567,-1.33292 31.5035,-46.83966 65.2151,-101.12608 l 61.2937,-98.70257 57.8323,-0.0632 57.8322,-0.0632 v 14.51105 c 0,9.9527 -16.0341,39.82977 -51.043,95.11058 -28.0737,44.32975 -53.5833,85.34589 -56.6879,91.14698 -4.9931,9.32963 0.9004,20.77437 51.043,99.12218 44.9229,70.19187 56.6879,92.18771 56.6879,105.98339 v 17.40868 l -55.3713,-0.042 -55.3713,-0.0421 -66.4455,-104.54816 -66.4456,-104.54821 -1.3284,104.59024 -1.3283,104.59024 h -63.8868 -63.8867 z"
     id="path488"
     transform="scale(0.75)" />
</svg>
